<?xml version="1.0" standalone="no"?>
<!DOCTYPE svg PUBLIC "-//W3C//DTD SVG 20010904//EN"
 "http://www.w3.org/TR/2001/REC-SVG-20010904/DTD/svg10.dtd">
<svg version="1.0" xmlns="http://www.w3.org/2000/svg"
 width="2360.000000pt" height="2360.000000pt" viewBox="0 0 2360.000000 2360.000000"
 preserveAspectRatio="xMidYMid meet">
<metadata>
Created by potrace 1.14, written by Peter Selinger 2001-2017
</metadata>
<g transform="translate(0.000000,2360.000000) scale(0.100000,-0.100000)"
fill="#000000" stroke="none">
<path d="M7005 13976 c-27 -13 -60 -34 -72 -45 -49 -47 -134 -196 -284 -501
-55 -113 -105 -212 -110 -220 -5 -8 -12 -22 -15 -30 -3 -8 -10 -22 -15 -30 -5
-8 -12 -22 -15 -30 -3 -8 -10 -22 -15 -30 -5 -8 -12 -22 -15 -30 -3 -8 -10
-22 -15 -30 -5 -8 -12 -22 -15 -30 -3 -8 -9 -22 -14 -30 -21 -37 -368 -743
-404 -822 -14 -32 -38 -84 -52 -115 -14 -32 -29 -65 -35 -73 -5 -8 -12 -22
-15 -30 -16 -40 -69 -153 -106 -224 -53 -106 -108 -243 -108 -272 0 -12 5 -26
11 -30 17 -10 70 -7 82 5 6 6 18 11 27 11 10 0 27 9 40 20 13 11 26 20 31 20
7 0 75 96 92 130 4 8 16 29 26 45 11 17 29 48 41 70 12 22 27 45 34 50 7 6 16
19 20 30 6 14 10 16 13 7 3 -8 0 -26 -7 -40 -7 -15 -18 -40 -25 -57 -7 -16
-40 -86 -73 -155 -108 -224 -126 -274 -111 -302 12 -22 11 -22 77 1 70 24 119
73 186 185 29 50 55 96 57 102 10 30 278 438 345 527 68 89 146 177 155 177 5
0 9 -7 9 -15 0 -8 -4 -15 -10 -15 -5 0 -10 -5 -10 -12 0 -6 -29 -70 -64 -142
-156 -319 -216 -479 -216 -579 0 -77 21 -90 132 -81 l81 7 -8 -24 c-4 -13 -10
-45 -12 -71 -4 -38 -1 -50 17 -68 20 -20 29 -22 79 -16 31 3 70 13 86 20 17 8
50 24 75 36 25 12 57 29 72 38 15 9 55 35 90 56 35 22 82 54 105 73 23 18 45
33 49 33 4 0 21 11 38 23 17 13 60 44 96 69 36 24 96 66 133 92 38 26 74 45
81 43 10 -4 10 -23 0 -99 -11 -84 -10 -97 5 -128 19 -39 69 -67 135 -78 38 -7
41 -10 44 -42 5 -63 22 -89 70 -110 55 -25 182 -27 235 -5 20 8 48 15 61 15
28 0 50 9 213 87 61 29 119 53 128 53 62 0 184 126 290 298 6 9 31 45 58 81
26 35 47 68 47 72 0 5 7 9 15 9 8 0 15 5 15 12 0 6 2 9 5 7 8 -8 -17 -66 -86
-203 -192 -379 -206 -410 -189 -431 7 -8 19 -15 26 -15 31 0 97 46 141 98 52
62 53 63 168 232 66 96 212 298 243 335 5 6 26 35 47 65 52 74 126 171 148
193 35 35 31 5 -10 -76 -103 -205 -173 -351 -173 -363 0 -7 -6 -25 -14 -41
-40 -80 -60 -215 -38 -250 15 -23 65 -34 129 -27 l62 6 -5 -68 c-8 -97 3 -109
93 -108 57 1 80 7 143 38 93 47 98 50 190 110 112 73 120 83 120 132 0 24 -5
46 -10 49 -6 4 -33 -7 -60 -24 -28 -17 -52 -31 -55 -31 -2 0 -24 -13 -47 -29
-24 -16 -56 -33 -71 -36 -15 -4 -30 -11 -33 -16 -3 -5 -14 -9 -24 -9 -21 0
-40 28 -40 57 0 29 45 84 93 114 23 14 49 34 57 44 19 23 16 116 -5 131 -8 6
-15 18 -15 27 0 17 151 320 162 325 5 2 8 8 8 14 0 6 22 47 49 92 26 44 51 88
55 96 3 8 22 42 41 75 49 84 135 261 135 278 0 8 7 31 15 50 24 57 20 113 -11
143 -22 23 -31 26 -87 22 l-62 -3 -1 79 c0 70 -3 81 -24 98 -34 27 -66 32
-129 18 -62 -13 -67 -15 -96 -33 -66 -41 -105 -70 -147 -111 -46 -45 -88 -60
-103 -36 -3 6 -28 10 -54 10 -39 0 -52 -5 -79 -31 -18 -18 -35 -43 -38 -58 -3
-14 -12 -39 -19 -56 -7 -16 -21 -50 -30 -75 -48 -128 -131 -278 -230 -414 -66
-90 -70 -64 -9 62 113 233 197 410 211 442 9 19 22 48 29 63 8 16 14 35 14 44
0 8 6 27 14 41 8 15 22 49 31 75 16 44 16 50 1 72 -14 22 -24 25 -74 25 -52 0
-62 -4 -90 -31 -17 -17 -36 -45 -41 -62 -19 -62 -43 -122 -52 -132 -5 -5 -9
-15 -9 -23 0 -15 -13 -45 -61 -149 -16 -35 -29 -65 -29 -69 0 -3 -6 -20 -14
-37 -8 -18 -26 -58 -40 -89 -93 -207 -192 -422 -207 -448 -5 -8 -12 -22 -15
-30 -13 -30 -107 -217 -154 -305 -27 -49 -55 -104 -63 -120 -30 -63 -77 -101
-182 -145 -27 -12 -59 -25 -70 -30 -61 -26 -189 -19 -206 11 -8 16 -5 21 18
29 81 30 298 151 321 178 14 19 16 86 2 112 -11 20 -20 17 -95 -30 -29 -18
-90 -48 -150 -74 -16 -7 -47 -21 -68 -30 -45 -19 -86 -21 -92 -3 -7 16 9 123
25 167 30 84 39 108 60 160 11 30 26 66 32 80 5 14 16 40 24 58 68 162 75 174
159 262 146 156 225 248 225 266 0 4 7 15 15 24 23 25 105 196 105 219 0 18
-6 21 -42 21 -24 -1 -54 -7 -68 -15 -14 -8 -33 -14 -44 -15 -30 0 -90 -55
-142 -130 -61 -88 -81 -119 -94 -145 -5 -11 -14 -27 -19 -35 -5 -8 -30 -51
-56 -95 -25 -44 -50 -87 -55 -95 -5 -8 -30 -57 -55 -107 -45 -90 -80 -129
-143 -162 -41 -21 -40 -8 4 94 7 17 25 59 40 95 61 148 80 178 184 287 57 59
130 143 162 187 59 79 158 266 158 298 0 28 -32 39 -82 29 -97 -21 -138 -42
-188 -99 -28 -31 -50 -62 -50 -69 0 -7 -4 -13 -8 -13 -5 0 -14 -10 -21 -22 -6
-13 -20 -36 -31 -53 -11 -16 -24 -39 -30 -50 -6 -11 -19 -33 -30 -50 -11 -16
-24 -39 -30 -50 -6 -11 -26 -47 -45 -80 -18 -33 -53 -97 -76 -143 -53 -103
-69 -119 -274 -270 -60 -45 -115 -86 -120 -90 -6 -5 -35 -26 -64 -46 -29 -21
-89 -64 -134 -96 -141 -102 -161 -116 -208 -144 -64 -36 -68 -18 -19 76 21 40
57 111 81 158 23 46 67 125 97 174 30 50 58 99 63 111 5 11 19 36 30 55 42 68
149 286 149 302 0 8 7 32 15 51 24 57 20 113 -11 143 -22 23 -31 26 -87 22
l-62 -3 -2 50 c-1 28 -2 65 -2 83 -1 45 -49 75 -106 68 -76 -10 -120 -23 -172
-49 -29 -14 -54 -23 -57 -19 -2 4 12 37 32 74 47 84 213 361 222 368 3 3 17
23 30 45 13 22 29 45 35 52 69 81 131 208 119 245 -12 39 -96 37 -186 -6 -30
-14 -58 -26 -61 -26 -14 0 -6 24 23 67 17 24 30 49 30 56 0 7 7 21 15 31 19
26 19 61 -1 80 -24 25 -118 20 -179 -8z m-11 -434 c-11 -21 -21 -39 -24 -42
-3 -3 -26 -48 -52 -100 -89 -183 -381 -765 -395 -790 -8 -14 -23 -38 -33 -55
-11 -16 -23 -37 -27 -45 -3 -8 -19 -31 -35 -51 -15 -20 -28 -41 -28 -46 0 -15
-109 -130 -110 -115 0 6 5 12 10 12 6 0 10 7 10 16 0 32 258 555 355 719 39
66 74 127 78 135 4 8 16 29 27 45 11 17 25 41 32 55 21 41 71 124 85 138 7 7
13 18 13 23 0 5 14 28 30 51 17 22 30 44 30 49 0 14 45 58 49 48 2 -6 -5 -27
-15 -47z m5 -740 c20 -38 -88 -208 -219 -343 -26 -28 -54 -63 -79 -99 -14 -19
-32 -42 -40 -51 -9 -8 -52 -63 -96 -122 -44 -59 -86 -107 -92 -107 -17 0 -16
36 2 68 8 15 44 90 80 167 114 240 189 345 319 448 70 56 109 68 125 39z
m2691 -4 c0 -67 -48 -158 -145 -278 -47 -58 -165 -210 -262 -338 -124 -164
-179 -230 -187 -222 -7 7 -6 20 6 43 8 17 61 124 117 237 123 247 140 277 204
360 130 166 267 268 267 198z m-2491 -183 c2 -11 -3 -33 -12 -50 -8 -16 -29
-61 -47 -100 -36 -78 -75 -156 -173 -350 -36 -71 -104 -209 -152 -305 -85
-174 -113 -214 -140 -203 -26 9 -17 72 25 168 73 170 272 566 305 605 6 8 15
22 19 30 3 8 16 31 27 50 12 19 35 60 51 90 44 83 87 112 97 65z m2687 11 c9
-22 -31 -130 -112 -303 -13 -29 -29 -62 -34 -75 -5 -13 -14 -30 -19 -38 -5 -8
-12 -22 -15 -30 -4 -8 -28 -55 -55 -105 -27 -49 -91 -171 -141 -271 -50 -99
-100 -185 -110 -192 -25 -16 -50 -5 -50 22 0 29 26 111 51 166 12 25 33 70 46
100 29 65 112 230 158 315 62 115 86 160 95 175 11 17 56 96 92 161 44 79 52
89 71 89 10 0 20 -6 23 -14z m-2232 -573 c-4 -21 -13 -50 -20 -65 -8 -15 -14
-35 -14 -45 -1 -32 -55 -97 -125 -151 -113 -85 -353 -248 -400 -272 -11 -6
-33 -19 -50 -29 -16 -11 -63 -36 -103 -57 -88 -45 -108 -40 -106 25 1 56 30
85 179 181 64 41 146 98 195 135 30 23 80 60 111 81 31 21 69 49 85 61 115 89
231 172 242 172 10 1 11 -9 6 -36z m206 -141 c0 -5 -9 -35 -21 -68 -11 -32
-24 -72 -28 -89 -12 -44 -41 -96 -50 -90 -15 8 -22 88 -13 136 11 56 58 119
90 119 12 0 22 -4 22 -8z"/>
<path d="M8679 13792 c-170 -175 -201 -214 -197 -249 3 -31 27 -41 62 -25 99
45 120 57 226 126 116 77 140 102 140 148 0 61 -44 128 -84 128 -14 0 -65 -45
-147 -128z"/>
<path d="M19415 13758 c-86 -89 -161 -171 -165 -184 -5 -12 -6 -31 -3 -43 8
-32 43 -29 113 11 8 4 24 12 36 17 24 11 126 72 134 81 3 3 23 17 45 32 103
68 122 103 95 173 -12 33 -58 75 -80 75 -10 0 -88 -73 -175 -162z"/>
<path d="M11466 13875 c-37 -19 -90 -51 -117 -71 -66 -48 -190 -203 -235 -293
-4 -8 -35 -56 -68 -107 -34 -51 -88 -136 -121 -189 -77 -123 -158 -249 -165
-255 -6 -6 -31 -42 -94 -135 -26 -38 -53 -75 -59 -80 -7 -6 -43 -46 -82 -90
-97 -110 -266 -279 -350 -350 -115 -98 -117 -100 -109 -154 12 -82 24 -81 136
20 40 37 91 83 113 103 38 33 61 46 53 28 -8 -19 -71 -140 -87 -167 -10 -16
-35 -61 -56 -100 -21 -38 -49 -88 -61 -110 -12 -22 -35 -62 -50 -90 -15 -27
-34 -61 -41 -75 -64 -113 -88 -160 -138 -260 -31 -63 -61 -124 -65 -135 -5
-11 -15 -36 -24 -55 -39 -90 -48 -120 -62 -193 -14 -71 -13 -85 1 -153 14 -62
24 -82 62 -124 26 -30 58 -53 76 -58 21 -5 43 -23 63 -53 63 -88 98 -114 176
-132 123 -29 207 -20 326 35 42 20 109 88 136 138 43 80 86 169 91 193 4 15
11 30 16 33 5 3 9 15 9 27 0 12 6 34 14 49 8 15 17 41 21 59 4 19 11 40 15 49
11 20 33 87 60 180 28 94 49 161 56 172 3 4 13 4 23 -1 14 -8 25 -2 54 27 40
41 47 76 26 129 -28 69 -35 127 -23 183 16 76 34 146 50 204 8 26 14 69 14 95
0 25 6 80 14 121 15 77 11 123 -13 169 -8 14 -18 20 -28 17 -8 -3 -21 -6 -29
-6 -8 0 -30 -16 -48 -35 -19 -19 -40 -35 -46 -35 -18 0 -4 85 22 135 18 37
100 151 144 201 11 12 37 43 59 70 22 26 83 98 135 159 52 62 138 162 190 225
52 62 102 120 110 130 8 10 33 39 55 66 22 26 45 52 50 58 6 6 28 34 50 61 22
28 47 58 57 68 30 30 49 77 46 110 -3 32 -3 32 -58 31 -42 -1 -70 -9 -115 -34
-81 -43 -153 -98 -195 -149 -19 -23 -43 -52 -53 -64 -11 -12 -26 -35 -34 -52
-9 -16 -46 -75 -82 -130 -36 -55 -70 -108 -76 -117 -5 -9 -23 -38 -39 -65 -16
-26 -54 -86 -84 -133 -168 -259 -191 -290 -217 -290 -63 0 -133 -64 -184 -168
-51 -103 -62 -123 -99 -180 -38 -58 -124 -140 -130 -122 -3 9 14 57 37 100 92
172 97 181 210 348 60 87 192 256 296 377 39 45 88 103 110 130 22 27 45 53
50 59 6 6 36 43 69 81 71 85 159 185 204 231 17 19 32 38 32 43 0 5 3 11 8 13
4 2 38 44 77 93 38 50 73 93 77 96 5 3 12 19 17 35 5 16 12 36 16 45 11 28
-22 49 -74 49 -34 0 -66 -10 -115 -35z m-916 -1755 c0 -22 -43 -116 -94 -205
-19 -33 -46 -80 -59 -105 -14 -25 -34 -61 -45 -80 -12 -19 -33 -57 -47 -85
-14 -27 -41 -77 -60 -110 -20 -33 -40 -71 -46 -85 -6 -13 -13 -27 -17 -30 -10
-7 -81 -155 -133 -275 -49 -114 -55 -123 -70 -108 -12 12 6 121 28 163 7 14
13 32 13 41 0 9 7 30 15 45 8 16 15 38 15 49 0 11 7 29 15 39 8 11 15 26 15
33 0 7 14 43 31 80 17 38 37 82 44 98 34 77 75 166 104 225 17 36 31 71 31 78
0 15 235 252 250 252 5 0 10 -9 10 -20z m38 -284 c3 -63 -11 -125 -47 -211 -4
-11 -23 -67 -41 -125 -30 -93 -49 -146 -80 -215 -5 -11 -19 -42 -31 -70 -95
-220 -128 -267 -186 -269 -45 -1 -53 17 -29 66 9 17 16 38 16 47 0 9 7 29 15
45 8 15 15 34 15 41 0 14 20 62 86 210 14 33 35 80 46 105 11 25 29 65 40 90
61 131 82 178 94 205 46 108 74 157 89 152 5 -2 11 -34 13 -71z m178 -150 c15
-12 19 -25 17 -70 -1 -30 -9 -68 -17 -85 -9 -16 -16 -38 -16 -48 0 -10 -7 -31
-15 -47 -8 -15 -15 -36 -15 -45 0 -9 -7 -29 -15 -45 -8 -15 -15 -36 -15 -45 0
-9 -6 -28 -14 -42 -7 -14 -16 -38 -20 -54 -4 -16 -21 -58 -37 -94 -40 -89 -45
-98 -69 -156 -61 -144 -98 -192 -155 -205 -54 -13 -112 -12 -136 0 -23 13 -25
30 -3 30 26 0 85 39 129 85 43 44 98 132 129 205 11 25 28 64 38 87 10 23 18
50 18 60 0 11 4 23 8 29 5 5 26 63 47 129 20 66 43 136 50 155 10 29 34 104
51 158 5 16 16 15 40 -2z"/>
<path d="M8889 13622 c-214 -222 -232 -246 -211 -279 6 -10 18 -9 53 4 79 31
285 161 333 212 28 29 29 33 18 69 -16 53 -48 92 -76 92 -16 0 -52 -30 -117
-98z"/>
<path d="M18125 13705 c-22 -8 -58 -14 -81 -14 -40 -1 -42 -2 -131 -123 -104
-141 -145 -201 -198 -290 -54 -90 -63 -95 -175 -103 -102 -8 -213 -33 -251
-59 -13 -8 -34 -34 -45 -58 -65 -130 -64 -133 41 -133 44 0 104 4 133 9 l54 9
-30 -59 c-46 -92 -55 -120 -44 -139 10 -19 2 -35 -77 -167 -88 -145 -189 -262
-306 -354 -27 -21 -52 -42 -55 -45 -10 -12 -535 -405 -550 -412 -8 -4 -32 -18
-53 -32 -32 -22 -38 -23 -43 -10 -4 9 0 33 8 53 24 60 39 105 48 142 10 45 28
97 46 133 8 16 14 34 14 40 0 10 64 111 80 127 3 3 36 52 75 110 38 58 72 107
75 110 3 3 17 23 30 45 13 22 27 42 30 45 3 3 17 23 30 45 13 22 26 42 29 45
11 9 51 69 51 75 0 4 11 21 24 38 62 83 83 168 50 201 -19 20 -135 22 -164 4
-28 -18 -36 -2 -17 35 47 87 27 165 -43 169 -99 5 -119 0 -166 -47 -24 -25
-49 -55 -55 -67 -28 -63 -77 -128 -96 -128 -14 0 -14 2 -1 18 18 21 56 99 68
141 7 24 4 35 -12 56 -23 29 -42 31 -112 9 -213 -68 -346 -167 -600 -447 -44
-48 -83 -87 -88 -87 -12 0 -10 26 8 81 11 32 15 69 12 106 -7 77 -30 96 -113
91 l-60 -3 -1 65 c-1 86 -8 103 -49 126 -30 16 -40 17 -81 6 -62 -17 -118 -51
-183 -112 -29 -27 -57 -50 -62 -50 -5 0 -27 -9 -49 -21 -62 -32 -70 -24 -70
75 l0 84 -36 23 -36 22 -67 -22 c-36 -12 -84 -36 -107 -54 -23 -18 -65 -51
-95 -75 -30 -23 -61 -48 -70 -55 -9 -6 -31 -39 -49 -72 -45 -85 -73 -125 -87
-125 -7 0 -13 -7 -13 -17 0 -9 -3 -14 -6 -11 -3 4 1 26 10 50 36 102 46 129
55 146 5 9 16 35 24 57 56 156 57 162 21 176 -36 14 -121 5 -143 -15 -26 -24
-64 -110 -81 -186 -9 -41 -61 -176 -105 -275 -7 -16 -23 -57 -36 -90 -13 -33
-27 -64 -31 -69 -4 -6 -8 -16 -8 -24 0 -12 -13 -44 -56 -139 -8 -17 -14 -37
-14 -45 0 -8 -4 -18 -8 -24 -4 -5 -18 -36 -31 -69 -13 -33 -35 -85 -48 -115
-14 -30 -34 -75 -45 -100 -26 -58 -64 -140 -122 -262 -25 -53 -46 -102 -46
-108 0 -30 -47 -90 -87 -109 -54 -26 -79 -26 -121 -1 -45 27 -38 49 23 80 28
14 76 40 108 59 l58 33 -3 56 c-4 70 -18 76 -88 33 -27 -16 -61 -31 -77 -33
-25 -3 -28 0 -26 26 1 16 10 45 19 65 27 61 114 233 147 293 18 31 44 79 58
105 49 88 208 352 222 368 5 6 28 42 52 80 24 39 60 96 80 128 20 32 34 64 31
72 -7 19 -63 19 -96 0 -14 -8 -40 -14 -58 -15 -18 0 -46 -7 -63 -16 -16 -8
-39 -12 -49 -9 -23 7 -21 13 46 116 23 36 44 79 46 95 3 28 1 29 -41 32 -27 2
-60 -3 -82 -14 -68 -30 -84 -3 -48 83 7 18 10 35 6 39 -14 14 -98 6 -140 -14
-43 -20 -113 -89 -134 -132 -9 -19 -12 -21 -12 -7 -1 9 3 25 9 35 16 30 59
139 92 235 28 81 21 91 -58 83 -126 -11 -187 -78 -291 -316 -9 -19 -22 -48
-29 -63 -8 -16 -14 -35 -14 -44 0 -8 -6 -29 -13 -46 -14 -33 -32 -91 -63 -207
-15 -58 -65 -149 -102 -189 -7 -8 -21 -26 -30 -40 -112 -177 -360 -451 -521
-575 -51 -39 -91 -58 -91 -42 0 3 21 35 47 73 145 211 304 534 344 696 5 21
13 45 18 55 18 36 43 129 39 148 -2 10 -12 20 -22 22 -23 5 -95 -29 -157 -75
-42 -30 -47 -31 -52 -14 -4 18 31 103 52 124 12 12 15 115 5 141 -8 20 -69 21
-104 1 -14 -8 -36 -15 -50 -15 -14 0 -34 -7 -44 -15 -11 -8 -28 -15 -38 -15
-15 0 -11 10 22 51 56 71 53 102 -15 144 -38 24 -121 25 -166 3 -19 -9 -41
-19 -49 -23 -17 -7 -34 -17 -110 -67 -143 -93 -404 -365 -578 -601 -91 -124
-180 -291 -235 -442 -35 -96 -40 -112 -48 -155 -28 -138 -21 -233 24 -330 24
-53 80 -107 119 -115 29 -7 57 -37 98 -104 13 -23 28 -41 34 -41 5 0 18 -8 28
-17 14 -13 39 -17 112 -17 91 -1 117 6 186 46 8 4 22 11 30 15 21 9 157 114
201 155 44 40 182 198 206 236 48 74 68 79 83 22 6 -21 15 -42 20 -45 9 -6
138 86 204 144 173 156 315 309 439 476 37 50 74 99 83 110 18 23 144 207 159
233 34 58 47 66 98 63 14 -1 16 -5 7 -20 -5 -11 -10 -28 -10 -38 0 -10 -7 -31
-15 -47 -8 -15 -15 -38 -15 -50 0 -53 -47 -154 -113 -241 -4 -5 -44 -59 -89
-120 -164 -222 -302 -369 -472 -502 l-108 -86 6 -41 c4 -23 10 -44 14 -48 11
-11 156 103 281 220 122 114 245 253 364 409 18 23 35 43 40 43 13 0 8 -28 -8
-44 -8 -8 -15 -19 -15 -25 0 -6 -13 -37 -29 -68 -16 -32 -39 -85 -52 -118 -13
-33 -27 -64 -31 -69 -4 -6 -8 -17 -8 -25 0 -9 -7 -29 -15 -44 -25 -48 -41
-188 -27 -236 17 -54 63 -88 133 -98 45 -7 54 -12 55 -29 4 -68 16 -95 54
-119 60 -38 142 -32 265 20 80 34 291 139 297 148 4 6 14 45 24 86 9 42 22 87
29 101 7 14 19 41 27 60 37 87 292 587 329 645 11 17 22 38 25 48 4 9 13 17
20 17 8 0 14 7 14 15 0 8 5 15 10 15 6 0 10 -4 10 -9 0 -6 -4 -13 -10 -16 -5
-3 -10 -15 -10 -27 0 -11 -6 -32 -14 -46 -8 -15 -25 -54 -37 -87 -13 -33 -27
-64 -31 -69 -4 -6 -8 -16 -8 -24 0 -12 -13 -44 -56 -139 -8 -17 -14 -36 -14
-42 0 -6 -4 -19 -10 -29 -5 -9 -19 -39 -30 -67 -29 -68 -49 -112 -155 -340
-25 -55 -52 -113 -59 -130 -7 -16 -21 -47 -30 -68 -17 -39 -21 -92 -8 -100 16
-10 105 21 130 45 15 14 37 55 50 90 13 34 29 77 37 93 7 17 20 46 28 65 18
41 127 259 207 415 124 241 192 352 198 321 2 -9 -3 -25 -12 -35 -9 -10 -16
-27 -16 -38 0 -12 -3 -23 -8 -25 -7 -3 -297 -583 -335 -671 -35 -79 -10 -109
70 -82 52 18 103 51 103 67 0 6 12 36 26 67 14 31 35 76 46 101 10 25 25 59
32 75 26 59 157 322 205 410 99 185 120 222 164 290 77 119 120 175 129 169
13 -8 9 -56 -7 -88 -8 -15 -15 -33 -15 -38 0 -6 -7 -26 -16 -46 -8 -21 -21
-50 -28 -67 -12 -28 -298 -602 -316 -635 -5 -8 -18 -35 -30 -60 -11 -25 -25
-53 -30 -62 -23 -43 -31 -57 -65 -128 -20 -41 -41 -83 -46 -92 -8 -16 -49
-120 -49 -125 0 -1 8 -7 18 -12 31 -16 152 32 152 61 0 5 14 39 31 76 51 111
66 144 94 207 50 113 165 336 231 450 19 33 40 72 47 88 6 15 15 27 19 27 14
0 9 -37 -7 -50 -8 -7 -15 -19 -15 -27 0 -8 -6 -27 -14 -41 -13 -25 -23 -49
-62 -139 -9 -21 -22 -51 -29 -68 -59 -132 -109 -304 -103 -352 2 -17 13 -33
28 -41 23 -13 31 -12 80 10 81 38 91 53 110 173 4 28 13 66 20 85 32 88 43
117 57 150 8 19 21 49 27 65 31 74 112 247 238 505 50 102 98 200 107 218 30
62 79 26 66 -49 -4 -21 -11 -41 -16 -45 -5 -3 -9 -12 -9 -21 0 -19 -16 -55
-90 -208 -32 -66 -102 -210 -155 -320 -53 -110 -100 -207 -105 -216 -7 -13
-43 -99 -99 -234 -25 -60 -40 -108 -56 -177 -18 -75 -18 -79 0 -98 21 -24 57
-26 75 -5 7 8 20 15 29 15 31 0 57 43 75 125 24 103 32 125 51 125 8 0 15 -5
15 -10 0 -24 81 -89 117 -96 49 -9 61 -19 73 -63 32 -113 136 -142 272 -75
102 49 108 53 175 112 59 51 86 62 98 42 11 -18 79 -41 103 -35 41 10 62 -10
62 -63 1 -33 7 -55 22 -72 18 -23 27 -25 97 -25 72 1 91 6 161 46 8 5 24 14
35 19 45 23 139 88 213 148 29 23 56 42 60 42 4 0 27 18 52 40 25 22 48 40 51
40 3 0 36 25 74 55 38 30 72 52 77 49 4 -3 8 -44 8 -92 0 -80 2 -90 26 -115
31 -34 93 -74 128 -83 17 -4 29 -17 36 -40 16 -49 53 -89 105 -114 71 -34 248
-22 363 26 75 32 108 47 122 55 8 5 22 12 30 15 8 3 22 9 30 14 8 5 33 19 55
30 22 12 58 35 80 51 22 16 55 36 74 45 30 13 98 60 138 94 7 6 34 25 60 42
27 17 64 44 84 60 70 54 78 41 57 -95 -10 -70 -10 -82 6 -111 19 -36 68 -62
138 -74 41 -7 43 -9 43 -44 1 -90 69 -132 200 -125 90 5 177 22 217 43 14 8
31 14 37 14 38 0 305 150 321 180 12 22 13 70 2 87 -6 9 -13 9 -32 -2 -14 -8
-38 -21 -55 -29 -16 -8 -46 -23 -65 -34 -19 -10 -53 -27 -75 -36 -22 -10 -54
-25 -72 -33 -42 -20 -201 -22 -214 -2 -12 19 -11 39 2 39 19 0 161 67 214 101
17 10 37 22 45 26 18 8 33 20 67 51 21 20 23 28 17 70 -3 26 -10 51 -14 55 -3
4 -36 -10 -73 -32 -61 -37 -130 -72 -233 -115 -23 -10 -52 -16 -65 -14 -22 3
-24 7 -23 63 1 68 41 196 109 350 7 17 18 41 23 55 77 181 78 183 173 284 47
50 103 111 125 136 21 24 47 53 56 64 49 54 163 279 154 302 -7 19 -85 18
-110 -1 -11 -8 -29 -15 -40 -15 -33 0 -72 -31 -124 -100 -77 -103 -230 -363
-316 -537 -35 -69 -156 -171 -156 -130 0 12 16 59 39 112 7 17 19 45 27 63 71
169 84 190 160 269 42 43 97 102 122 132 26 30 58 66 71 80 13 14 27 35 32 46
5 11 18 34 29 50 11 17 22 37 26 45 3 8 10 22 15 30 5 8 12 22 15 30 3 8 12
27 20 42 19 36 18 84 -2 92 -21 8 -81 -3 -116 -20 -15 -8 -36 -14 -46 -14 -29
0 -91 -67 -163 -177 -75 -113 -87 -133 -96 -153 -4 -8 -27 -49 -51 -90 -59
-102 -55 -94 -104 -189 -43 -85 -43 -84 -193 -203 -5 -5 -32 -25 -60 -45 -27
-21 -54 -41 -60 -46 -21 -17 -265 -193 -312 -225 -26 -18 -74 -51 -107 -74
-32 -22 -93 -58 -135 -80 -42 -21 -96 -50 -120 -63 -24 -14 -50 -25 -56 -25
-7 0 -18 -7 -25 -15 -7 -8 -20 -15 -29 -15 -9 0 -29 -7 -45 -15 -26 -14 -96
-21 -96 -10 0 19 42 153 67 213 55 133 63 151 137 302 78 158 122 242 195 365
29 50 56 97 61 106 31 59 64 118 81 144 10 17 23 40 28 52 14 31 56 50 131 57
36 4 83 11 105 17 22 5 74 13 115 19 152 18 201 44 241 126 21 43 23 89 4 89
-5 -1 -54 -5 -107 -9 -54 -5 -105 -5 -114 -2 -15 6 -15 8 -2 24 24 27 68 115
68 135 0 29 -19 57 -40 57 -30 0 -30 12 -1 55 15 22 49 70 74 108 26 37 47 69
47 72 0 10 -49 5 -90 -10 -23 -8 -61 -15 -84 -15 -49 0 -58 -8 -154 -137 -63
-83 -107 -123 -136 -123 -9 0 -16 3 -16 6 0 6 102 157 191 284 87 122 118 173
113 182 -8 12 -73 8 -119 -7z m-5815 -806 c23 -12 38 -25 33 -29 -4 -4 -42
-32 -85 -64 -181 -134 -496 -491 -619 -701 -37 -63 -93 -177 -104 -209 -3 -10
-9 -16 -12 -12 -9 9 -5 77 5 91 5 5 18 37 31 70 26 67 76 170 127 260 18 33
38 69 44 80 20 39 119 187 134 200 6 6 36 42 65 80 71 92 185 201 241 230 57
30 89 30 140 4z m3857 -73 c41 -13 35 -35 -24 -89 -140 -129 -267 -266 -375
-408 -52 -68 -98 -131 -101 -139 -9 -19 -30 -54 -38 -60 -7 -6 -8 -9 -100
-187 -36 -71 -69 -141 -73 -156 -3 -15 -10 -27 -15 -27 -32 0 -10 151 35 243
8 16 14 33 14 38 0 17 60 145 120 253 41 75 144 227 180 266 8 9 46 52 85 96
38 43 101 112 139 151 l69 73 31 -24 c17 -13 41 -26 53 -30z m-1387 -35 c0
-52 -17 -98 -64 -171 -52 -80 -127 -175 -139 -175 -13 0 -11 52 2 70 4 6 17
37 30 70 12 33 29 72 37 87 8 14 14 32 14 39 0 20 41 101 63 126 15 17 24 20
38 12 15 -7 19 -21 19 -58z m480 5 c0 -43 -46 -158 -69 -176 -4 -3 -17 -21
-29 -41 -12 -19 -30 -44 -41 -54 -18 -15 -21 -16 -26 -3 -4 9 0 37 8 64 9 27
23 85 32 129 9 44 19 87 21 96 3 9 19 24 37 32 29 14 33 14 49 0 10 -9 18 -30
18 -47z m2452 -32 c6 -5 -36 -90 -84 -174 -11 -19 -31 -55 -45 -80 -13 -25
-32 -57 -41 -71 -9 -15 -32 -52 -50 -83 -34 -57 -93 -135 -146 -193 -85 -94
-47 22 88 272 72 132 88 161 107 190 10 17 23 40 28 51 5 12 24 38 41 58 24
27 40 36 64 36 18 0 35 -3 38 -6z m-1178 -140 c-65 -122 -107 -210 -152 -314
-95 -220 -151 -326 -195 -372 -22 -23 -42 -37 -44 -31 -4 10 44 170 67 228 4
11 17 48 28 81 12 40 54 114 118 208 55 81 104 155 109 164 23 39 79 112 86
112 4 0 11 10 15 23 6 17 9 18 11 6 2 -9 -17 -56 -43 -105z m-272 33 c-22 -46
-71 -154 -92 -202 -24 -56 -54 -122 -94 -207 -36 -76 -193 -270 -360 -445 -56
-59 -107 -85 -92 -47 3 9 9 28 13 42 3 14 12 37 19 51 8 14 14 31 14 37 0 18
124 257 167 320 76 114 94 138 141 193 184 215 283 314 290 292 2 -7 0 -23 -6
-34z m-3962 -4 c0 -10 -7 -40 -15 -67 -8 -27 -15 -67 -15 -88 0 -21 -7 -55
-15 -75 -8 -19 -15 -43 -15 -52 0 -9 -7 -29 -15 -45 -8 -15 -15 -33 -15 -39 0
-21 -80 -184 -119 -242 -90 -133 -118 -169 -210 -267 -89 -95 -194 -153 -215
-119 -6 10 17 95 40 149 7 18 20 47 27 65 99 232 250 480 392 643 119 136 175
180 175 137z m1530 -103 c0 -13 -62 -114 -72 -118 -4 -2 -8 -10 -8 -17 0 -8
-6 -20 -13 -27 -13 -13 -46 -65 -96 -151 -13 -23 -36 -60 -49 -82 -14 -22 -40
-67 -57 -100 -18 -33 -47 -87 -65 -120 -49 -89 -90 -172 -90 -185 0 -21 -34
-70 -48 -70 -17 0 -12 128 8 180 31 83 67 167 81 190 5 8 12 22 15 30 3 8 9
22 14 30 5 8 19 35 31 60 13 25 44 82 71 127 26 45 48 84 48 87 0 8 62 109 75
121 40 40 71 55 111 55 24 0 44 -4 44 -10z m-1370 -251 c0 -37 -34 -148 -74
-244 -88 -207 -256 -434 -408 -551 -31 -24 -63 -44 -70 -44 -8 0 -23 -7 -34
-15 -26 -20 -144 -21 -144 -1 0 7 33 39 73 69 107 82 156 131 262 258 88 105
262 354 305 434 6 11 19 34 30 50 11 17 25 40 31 53 17 31 29 27 29 -9z m4612
-232 c-42 -87 -62 -136 -62 -150 0 -23 -83 -99 -219 -201 -306 -230 -396 -280
-481 -261 -60 13 -46 66 30 116 25 16 73 50 107 77 33 26 81 62 105 80 23 18
50 38 58 45 8 7 52 40 96 74 45 34 88 68 95 75 8 7 46 38 84 68 39 30 81 65
95 77 14 12 45 37 70 56 57 44 63 29 22 -56z m1348 -9 c-24 -103 -54 -170 -95
-213 -23 -25 -141 -115 -149 -115 -5 0 -93 -61 -141 -98 -41 -31 -137 -83
-300 -164 -108 -54 -234 -98 -279 -98 -27 0 -96 29 -96 41 0 10 47 39 62 39
21 0 217 101 286 148 35 23 67 42 71 42 5 0 55 34 112 75 214 154 361 260 379
275 10 8 28 22 40 30 12 8 38 27 59 42 49 37 61 36 51 -4z m-1120 -88 c-5 -17
-22 -59 -39 -95 -17 -36 -31 -69 -31 -74 0 -5 -6 -22 -14 -38 -7 -15 -22 -45
-31 -65 -39 -82 -54 -23 -24 92 28 108 76 184 129 203 8 3 16 6 17 6 1 1 -2
-13 -7 -29z m1330 -64 c0 -8 -4 -18 -10 -21 -5 -3 -10 -16 -10 -28 0 -12 -7
-35 -15 -51 -8 -15 -15 -35 -15 -43 0 -8 -10 -35 -21 -61 -20 -44 -22 -45 -36
-27 -11 15 -14 39 -10 92 3 62 8 77 36 112 33 42 81 57 81 27z m-2693 -48 c-3
-13 -10 -36 -15 -53 -31 -90 -42 -133 -42 -158 0 -39 -45 -112 -83 -135 -55
-32 -116 -43 -154 -27 -57 24 -46 46 96 194 71 73 142 148 158 167 33 39 47
43 40 12z m193 -174 c0 -8 -4 -14 -10 -14 -5 0 -10 9 -10 21 0 11 5 17 10 14
6 -3 10 -13 10 -21z"/>
<path d="M19597 13559 c-127 -131 -157 -167 -157 -190 0 -15 4 -31 10 -34 9
-6 134 52 206 95 22 13 74 50 117 82 68 52 77 63 77 91 0 48 -40 111 -71 115
-22 3 -51 -22 -182 -159z"/>
<path d="M4195 13188 c-174 -178 -241 -297 -273 -483 -4 -26 -83 -141 -148
-215 -203 -233 -435 -459 -539 -525 -17 -11 -73 -52 -127 -92 -53 -40 -114
-82 -135 -93 -21 -12 -45 -25 -53 -29 -66 -36 -190 -87 -246 -101 -18 -4 -38
-11 -45 -16 -31 -20 -131 -37 -244 -41 -132 -5 -145 1 -145 59 0 23 8 33 37
51 37 21 236 154 339 226 209 147 447 387 551 556 79 128 113 230 113 333 0
79 -2 87 -30 122 -18 23 -43 41 -60 45 -45 10 -77 41 -85 81 -10 56 -47 97
-105 118 -100 36 -229 0 -400 -113 -128 -83 -369 -358 -485 -553 -5 -9 -28
-48 -51 -85 -22 -37 -62 -113 -89 -168 -26 -55 -54 -112 -61 -127 -8 -14 -14
-33 -14 -41 0 -9 -6 -28 -14 -44 -14 -28 -31 -84 -61 -199 -21 -83 -20 -217 3
-279 31 -87 60 -123 142 -180 30 -21 62 -48 70 -59 35 -49 85 -97 125 -120
117 -65 381 -43 602 51 18 7 47 20 65 27 106 45 358 187 396 223 29 28 50 24
112 -22 34 -25 67 -45 74 -45 11 0 21 -12 79 -89 27 -37 95 -86 147 -107 8 -3
29 -13 45 -22 22 -13 55 -17 125 -17 91 0 98 2 161 37 107 60 219 179 303 321
25 43 46 84 46 91 0 7 7 21 15 32 8 10 15 28 15 39 0 11 7 33 15 49 8 15 15
37 15 48 0 10 7 33 16 49 25 49 13 242 -29 479 -29 166 -4 263 108 415 147
198 171 246 147 281 -4 5 -24 20 -45 33 -45 27 -74 23 -115 -17 -16 -15 -59
-56 -96 -91 -36 -35 -66 -58 -66 -51 0 6 30 57 68 111 115 172 117 179 42 234
-21 15 -47 25 -69 25 -32 0 -46 -12 -146 -112z m-1350 -198 c28 -31 12 -64
-53 -107 -115 -76 -306 -285 -423 -463 -100 -151 -122 -188 -145 -232 -29 -57
-81 -118 -100 -118 -17 0 -17 3 0 65 24 89 142 363 167 385 3 3 16 23 29 45
69 116 237 307 334 380 84 64 158 81 191 45z m205 -329 c-22 -67 -62 -145
-118 -230 -20 -31 -41 -63 -47 -72 -45 -73 -233 -270 -294 -309 -12 -8 -35
-25 -49 -38 -15 -12 -47 -35 -72 -49 -25 -15 -51 -33 -58 -40 -7 -7 -20 -13
-28 -13 -8 0 -14 -4 -14 -8 0 -9 -64 -42 -80 -42 -28 0 8 120 48 163 15 16 50
44 79 63 29 19 58 40 65 47 7 6 47 39 88 71 135 107 318 301 404 430 61 91 81
114 88 102 5 -10 1 -37 -12 -75z m-260 48 c0 -6 -13 -31 -30 -56 -16 -24 -30
-46 -30 -49 0 -5 -40 -64 -50 -74 -3 -3 -23 -27 -44 -55 -86 -110 -186 -200
-186 -167 0 9 37 80 51 96 5 6 33 43 61 81 55 74 96 122 164 192 41 42 64 54
64 32z m1169 -246 c7 -21 15 -60 18 -86 5 -45 2 -52 -44 -112 -26 -35 -122
-137 -213 -227 -169 -168 -198 -194 -247 -224 -15 -10 -82 -59 -148 -109 -117
-88 -217 -155 -233 -155 -5 0 -35 -13 -67 -30 -32 -16 -66 -30 -75 -30 -8 0
-24 -6 -35 -13 -11 -7 -45 -20 -75 -29 -30 -9 -78 -24 -107 -32 -58 -18 -213
-22 -213 -6 0 6 8 10 18 10 10 0 27 7 38 15 10 8 25 15 31 15 7 0 63 25 125
56 119 58 128 63 196 107 24 15 46 27 49 27 3 0 22 14 43 30 21 17 41 30 44
30 4 0 61 42 128 93 66 50 133 101 148 112 122 90 363 332 529 533 28 34 57
62 64 62 7 0 18 -17 26 -37z m56 -313 c9 -55 -3 -187 -22 -235 -62 -159 -107
-228 -174 -271 -61 -38 -104 -33 -183 24 -91 65 -94 82 -25 141 73 62 198 187
294 294 43 48 84 87 91 87 7 0 15 -18 19 -40z m188 -305 c0 -48 -6 -97 -12
-109 -5 -12 -20 -46 -32 -76 -31 -76 -83 -154 -132 -195 -36 -31 -47 -35 -99
-35 -52 0 -58 2 -58 21 0 12 29 50 71 92 99 102 216 285 235 369 3 16 11 27
17 25 8 -3 11 -33 10 -92z"/>
<path d="M21696 13193 c-178 -176 -232 -271 -276 -481 -5 -23 -18 -52 -30 -64
-11 -12 -32 -40 -47 -62 -16 -23 -32 -46 -38 -52 -5 -6 -30 -35 -55 -65 -82
-99 -304 -326 -396 -405 -73 -62 -200 -158 -278 -209 -32 -21 -73 -52 -91 -69
-31 -30 -33 -34 -25 -75 4 -23 12 -47 17 -52 8 -8 138 68 153 90 3 4 30 25 60
46 30 21 57 41 60 44 3 4 36 31 75 61 103 80 119 94 241 215 107 106 248 260
308 337 27 34 54 54 63 45 2 -2 13 -30 24 -62 26 -75 20 -107 -32 -170 -82
-101 -378 -392 -453 -445 -212 -151 -317 -234 -322 -256 -9 -34 3 -74 22 -74
8 0 30 11 48 25 42 32 51 31 95 -5 46 -39 49 -41 94 -64 24 -12 44 -34 57 -60
22 -45 67 -81 169 -134 62 -33 71 -35 166 -35 103 0 116 4 200 58 125 81 317
346 340 469 4 20 11 39 16 41 4 3 11 26 15 50 3 25 10 47 14 50 15 9 21 129
10 205 -51 356 -57 424 -40 477 30 93 66 153 199 332 50 67 61 90 61 121 0 35
-4 40 -46 65 -29 17 -54 25 -67 21 -12 -3 -63 -46 -114 -95 -50 -49 -94 -87
-97 -84 -6 7 33 76 46 81 4 2 8 8 8 14 0 5 20 36 45 68 71 93 73 149 6 188
-71 40 -85 34 -205 -85z m-191 -1130 c0 -84 -4 -126 -12 -135 -7 -6 -13 -19
-13 -27 -1 -9 -9 -34 -20 -56 -11 -22 -20 -44 -20 -50 -1 -19 -100 -138 -130
-156 -44 -27 -102 -24 -151 7 -41 25 -109 88 -109 99 0 3 82 88 183 188 101
100 196 199 212 220 16 22 35 37 44 35 14 -3 16 -22 16 -125z m195 -206 c0
-78 -20 -147 -70 -249 -64 -128 -127 -181 -213 -176 -72 4 -74 25 -8 84 71 64
174 204 221 301 22 45 40 88 40 96 0 7 3 17 6 20 16 16 24 -10 24 -76z"/>
<path d="M5595 13143 c-11 -2 -33 -10 -50 -18 -16 -8 -37 -16 -45 -19 -28 -11
-136 -84 -190 -130 -83 -68 -266 -254 -356 -361 -58 -69 -204 -261 -204 -269
0 -3 -11 -21 -24 -41 -22 -32 -75 -137 -120 -237 -9 -20 -16 -42 -16 -50 0 -8
-4 -18 -9 -23 -10 -12 -45 -129 -62 -206 -12 -57 -9 -125 10 -209 18 -84 57
-140 119 -171 51 -26 102 -67 102 -83 0 -15 44 -76 54 -76 5 0 18 -8 28 -17
26 -24 191 -25 239 -1 19 9 41 19 49 22 8 4 29 15 45 26 17 11 37 23 45 27 32
14 168 138 234 211 124 140 276 351 385 537 29 50 56 97 61 105 19 31 69 138
94 200 15 36 31 73 36 82 6 10 10 23 10 29 0 6 6 25 14 42 7 18 23 66 35 107
13 41 27 84 33 96 16 34 6 79 -18 82 -25 4 -107 -36 -160 -79 l-39 -31 -3 27
c-3 27 19 82 46 116 9 11 12 40 10 85 l-3 69 -37 3 c-20 2 -50 -4 -67 -12 -16
-9 -40 -16 -53 -16 -13 0 -32 -7 -42 -15 -11 -8 -28 -15 -38 -15 -15 0 -11 10
22 51 22 28 40 62 40 75 0 57 -97 105 -175 87z m-15 -244 c23 -12 38 -25 33
-29 -4 -4 -44 -34 -88 -67 -80 -61 -287 -266 -381 -378 -96 -114 -234 -306
-234 -325 0 -5 -6 -15 -12 -22 -12 -12 -77 -138 -94 -183 -7 -16 -9 -12 -12
19 -2 22 1 49 7 60 9 20 21 47 66 156 10 25 22 50 27 56 4 6 24 42 44 80 44
84 70 130 92 166 22 36 75 112 83 118 3 3 33 41 66 85 104 135 189 217 276
266 43 24 78 23 127 -2z m-13 -256 c-3 -16 -11 -59 -17 -98 -35 -210 -98 -367
-220 -546 -122 -180 -288 -342 -360 -351 -23 -3 -25 0 -24 32 2 39 19 112 34
138 5 9 17 35 26 57 23 57 117 249 124 255 3 3 16 25 29 49 52 103 195 297
300 407 82 87 117 105 108 57z m163 -348 c0 -20 -7 -52 -15 -72 -8 -19 -15
-45 -15 -57 0 -11 -7 -30 -15 -40 -8 -11 -15 -26 -15 -33 0 -24 -73 -168 -128
-253 -122 -188 -273 -341 -385 -393 -47 -21 -157 -24 -157 -3 0 7 35 40 78 72
104 78 153 125 215 203 28 36 57 72 64 79 40 41 253 345 253 359 0 4 6 14 14
22 8 9 22 32 33 51 61 111 73 121 73 65z"/>
<path d="M20300 13122 c-25 -8 -58 -21 -75 -28 -16 -7 -37 -15 -45 -18 -8 -4
-28 -15 -45 -26 -16 -11 -37 -23 -45 -27 -58 -26 -251 -209 -330 -313 -19 -25
-40 -49 -46 -55 -21 -19 -133 -172 -154 -211 -12 -22 -25 -46 -30 -54 -81
-131 -180 -343 -215 -460 -9 -30 -20 -69 -25 -86 -13 -40 -13 -221 0 -229 6
-3 10 -17 10 -31 0 -18 20 -44 71 -92 38 -37 107 -103 152 -148 94 -92 142
-118 247 -134 79 -12 270 1 319 21 14 6 43 14 65 19 63 13 160 50 281 107 85
40 95 51 95 104 0 59 -18 71 -62 46 -17 -9 -37 -17 -47 -17 -9 0 -26 -7 -37
-15 -10 -8 -25 -15 -32 -15 -8 0 -28 -6 -45 -14 -18 -8 -53 -17 -79 -21 -26
-3 -50 -10 -53 -16 -8 -12 -205 -12 -205 1 0 6 8 10 18 10 10 0 27 7 38 15 10
8 26 15 34 15 20 0 110 38 205 85 l80 41 7 54 c4 30 5 61 3 68 -6 17 -50 15
-93 -4 -86 -37 -99 -42 -129 -48 -18 -4 -35 -12 -38 -17 -4 -5 -20 -9 -36 -9
-16 0 -46 -7 -66 -15 -23 -10 -69 -15 -137 -15 -96 0 -104 2 -126 25 l-23 25
17 109 c10 61 29 140 42 178 14 37 28 76 31 86 5 17 58 121 105 207 73 136
201 301 310 403 99 94 128 106 128 58 0 -17 -4 -32 -9 -36 -5 -3 -13 -20 -17
-37 -3 -18 -10 -39 -15 -48 -5 -8 -18 -37 -30 -65 -22 -54 -62 -142 -85 -189
-19 -40 -18 -54 7 -61 39 -13 63 4 104 71 22 37 47 77 55 89 23 35 112 181
141 232 37 65 63 79 73 40 17 -70 -57 -294 -180 -540 -27 -56 -25 -67 16 -67
21 0 33 7 42 25 12 22 80 133 118 191 78 119 165 276 200 359 11 28 25 58 30
67 6 10 15 48 22 86 10 60 9 71 -6 94 -14 22 -28 28 -73 34 -71 9 -88 27 -84
91 3 64 -21 86 -116 107 -87 19 -173 19 -233 -2z m22 -219 c23 -20 23 -39 1
-47 -75 -25 -253 -187 -388 -355 -121 -150 -165 -210 -208 -291 -14 -25 -34
-61 -45 -80 -12 -19 -40 -74 -64 -122 -24 -48 -46 -88 -50 -88 -5 0 -8 19 -8
41 0 80 67 251 173 444 106 192 290 407 412 483 59 37 145 45 177 15z"/>
</g>
</svg>
