<?xml version="1.0" standalone="no"?>
<!DOCTYPE svg PUBLIC "-//W3C//DTD SVG 20010904//EN"
 "http://www.w3.org/TR/2001/REC-SVG-20010904/DTD/svg10.dtd">
<svg version="1.0" xmlns="http://www.w3.org/2000/svg"
 width="1056.000000pt" height="1056.000000pt" viewBox="0 0 1056.000000 1056.000000"
 preserveAspectRatio="xMidYMid meet">
<metadata>
Created by potrace 1.14, written by Peter Selinger 2001-2017
</metadata>
<g transform="translate(0.000000,1056.000000) scale(0.100000,-0.100000)"
fill="#000000" stroke="none">
<path d="M8594 8433 c-16 -14 -60 -51 -99 -82 -38 -31 -72 -58 -75 -61 -3 -3
-41 -34 -85 -70 -44 -35 -82 -67 -85 -70 -3 -3 -32 -27 -65 -55 -100 -83 -105
-88 -240 -206 -178 -156 -193 -170 -310 -285 l-103 -101 44 -99 c24 -55 50
-112 59 -127 8 -16 15 -34 15 -40 0 -7 11 -25 25 -41 25 -29 25 -29 64 -14 39
16 39 15 45 -8 4 -13 20 -46 36 -74 17 -28 30 -57 30 -65 0 -7 3 -15 8 -17 4
-1 20 -28 35 -58 48 -94 50 -96 105 -82 49 13 226 68 252 79 8 3 20 7 25 9 6
1 33 11 62 22 28 11 54 17 57 14 3 -3 6 0 6 6 0 7 3 11 8 10 8 -3 107 31 172
60 22 10 77 33 90 37 15 5 51 21 100 43 30 14 61 27 69 28 8 1 18 9 22 16 5 7
9 9 9 4 0 -5 7 -3 15 4 8 7 15 9 15 5 0 -5 8 -1 18 8 9 8 19 15 22 15 13 -2
180 86 180 94 0 5 5 6 10 3 6 -3 23 3 39 14 16 12 32 21 36 21 4 0 19 9 35 20
15 11 29 17 32 15 2 -2 17 7 32 20 16 14 32 22 37 19 5 -2 11 7 15 21 7 29 -1
179 -11 195 -4 6 -8 26 -10 45 -3 36 -30 82 -76 128 -33 33 -99 79 -99 69 0
-4 -4 -2 -8 4 -4 5 -35 27 -70 48 -39 23 -61 43 -58 51 2 7 2 16 -2 19 -3 4
-7 17 -9 29 -2 12 -5 33 -7 47 -5 32 -37 100 -48 100 -4 0 -8 4 -8 10 0 13
-92 100 -106 100 -7 0 -118 84 -122 93 -2 4 -9 7 -16 7 -7 0 -21 9 -30 19 -27
30 -51 31 -82 4z"/>
<path d="M4230 6963 c0 -4 -28 -8 -63 -8 -34 -1 -82 -4 -107 -8 -25 -3 -60 -9
-79 -11 -18 -3 -41 -8 -51 -11 -10 -3 -29 -8 -42 -11 -28 -6 -77 -20 -138 -39
-36 -11 -285 -118 -297 -127 -18 -14 -135 -77 -155 -84 -10 -4 -18 -10 -18
-15 0 -5 -4 -9 -10 -9 -5 0 -50 -28 -101 -62 -50 -35 -98 -67 -107 -73 -10 -5
-19 -12 -22 -15 -3 -3 -23 -18 -45 -35 -22 -16 -42 -31 -45 -34 -3 -4 -27 -24
-55 -46 -148 -117 -418 -377 -535 -515 -35 -41 -69 -80 -74 -86 -6 -7 -27 -31
-46 -55 -19 -24 -42 -50 -50 -59 -8 -9 -33 -40 -56 -70 -22 -30 -86 -116 -141
-190 -81 -108 -208 -301 -320 -485 -7 -11 -31 -51 -55 -90 -24 -38 -45 -74
-47 -80 -2 -5 -12 -22 -23 -37 -34 -49 -154 -300 -182 -383 -16 -44 -31 -87
-34 -95 -31 -88 -44 -169 -45 -285 0 -102 6 -144 32 -224 12 -36 24 -77 26
-92 4 -24 17 -58 58 -151 7 -16 15 -28 19 -28 5 0 8 -5 8 -11 0 -25 110 -146
179 -197 20 -15 38 -29 41 -32 11 -11 165 -92 183 -96 4 -1 9 -3 12 -4 5 -3 6
-3 50 -15 17 -4 36 -12 42 -18 7 -5 13 -7 13 -3 0 3 11 1 24 -4 23 -8 81 -19
136 -25 14 -2 25 -4 25 -5 0 -4 132 -11 230 -12 129 -1 245 5 245 13 0 3 10 5
23 4 19 -2 230 33 293 48 12 3 38 8 59 11 20 3 45 11 56 16 10 6 19 9 19 6 0
-2 27 4 59 14 33 10 62 15 65 12 3 -3 6 1 6 8 0 7 2 11 6 8 3 -3 25 0 49 7 24
8 46 11 49 8 3 -4 6 -1 6 6 0 7 5 9 10 6 6 -4 17 -1 25 5 8 7 15 10 15 6 0 -3
15 0 34 8 19 8 37 12 40 8 3 -3 6 0 6 7 0 8 8 11 20 8 10 -3 20 -2 22 2 3 6
90 40 122 46 10 3 24 9 32 16 8 6 14 9 14 5 0 -3 16 1 36 9 20 8 40 13 44 10
4 -3 11 2 14 11 3 8 10 13 15 9 5 -3 12 -1 16 5 4 6 11 8 16 5 5 -4 9 -1 9 4
0 6 3 10 8 10 4 -1 23 4 42 12 19 7 38 12 43 11 4 -1 7 3 7 8 0 6 5 10 11 10
6 0 34 11 61 25 27 14 54 23 59 19 5 -3 9 -1 9 4 0 6 17 17 37 25 34 13 39 13
50 -2 8 -10 12 -12 13 -3 0 6 7 12 15 12 8 0 15 4 15 8 0 4 16 14 35 21 19 7
33 16 31 20 -3 4 5 8 16 8 12 1 24 6 27 11 3 5 38 26 76 47 39 21 72 41 75 44
3 3 14 11 25 17 89 48 121 68 126 76 3 5 8 9 10 8 6 -2 43 13 49 19 6 7 35 24
96 57 22 12 59 34 82 48 23 14 45 26 49 26 5 0 25 11 46 25 20 14 37 22 37 18
0 -4 4 -3 8 3 7 10 252 134 266 134 4 0 14 7 23 15 8 8 19 13 24 10 5 -4 9 -1
9 5 0 6 4 9 9 6 5 -4 11 -3 13 1 4 9 164 93 177 93 5 0 -8 -48 -29 -107 -21
-60 -40 -126 -43 -148 -4 -22 -11 -65 -16 -95 -6 -30 -13 -80 -17 -110 -3 -30
-7 -68 -9 -85 -29 -238 -25 -277 32 -359 25 -35 118 -109 142 -112 3 0 20 -6
36 -13 17 -7 35 -14 40 -15 6 -2 17 -6 25 -9 34 -13 150 -29 223 -30 42 -1 77
-6 77 -10 0 -5 5 -5 11 -2 6 4 54 9 107 11 53 2 108 6 122 8 14 2 48 7 75 11
44 6 124 23 205 42 14 3 32 7 40 8 8 1 22 5 30 8 8 3 29 9 45 13 37 9 34 8 68
22 16 7 33 12 38 12 5 0 34 9 64 19 29 10 56 16 59 13 3 -3 6 0 6 6 0 7 9 12
19 12 11 0 23 5 26 10 4 6 10 8 15 5 5 -3 11 -1 15 5 3 5 12 10 19 10 8 0 31
8 52 17 22 9 42 16 47 15 4 -1 7 3 7 9 0 5 4 8 9 4 5 -3 16 2 25 10 8 9 17 15
18 15 6 -3 63 13 68 19 10 13 62 31 71 26 5 -4 9 -2 9 3 0 10 141 82 160 82 6
0 8 5 4 12 -4 6 -3 8 3 5 5 -3 45 11 89 32 126 61 172 81 188 81 9 0 16 5 16
10 0 6 4 10 9 10 5 0 22 5 38 12 15 6 30 12 33 13 3 1 22 9 42 19 21 9 41 16
45 17 5 0 15 7 24 15 9 8 19 11 22 7 4 -3 7 -1 7 5 0 7 3 11 8 11 33 -5 72 32
67 64 -2 12 -6 58 -9 102 -16 231 -22 291 -31 305 -3 5 -1 11 4 15 14 8 2 35
-15 35 -8 0 -13 3 -11 8 8 24 -27 13 -176 -53 -53 -23 -60 -24 -74 -10 -9 9
-22 14 -30 11 -8 -4 -26 -9 -39 -12 -13 -3 -24 -10 -24 -15 0 -5 -3 -8 -7 -7
-9 2 -61 -22 -273 -126 -111 -55 -269 -115 -340 -131 -8 -2 -42 -11 -75 -19
-74 -20 -315 -23 -315 -4 0 4 -8 8 -17 8 -41 1 -87 68 -79 115 2 11 0 30 -5
42 -4 12 -4 23 1 25 5 2 11 15 14 31 3 15 9 39 12 54 3 15 11 41 19 58 7 16
19 47 26 68 7 20 17 37 21 37 4 0 8 9 8 19 0 11 4 22 9 26 5 3 12 19 16 35 4
17 10 30 15 30 4 0 15 17 24 38 22 53 76 146 90 154 6 4 8 8 4 8 -4 0 6 22 22
49 17 26 30 53 30 59 0 6 4 12 8 14 5 2 28 36 52 76 23 40 47 75 51 78 5 3 7
10 4 15 -4 5 -1 9 4 9 6 0 11 6 11 14 0 8 7 16 15 20 8 3 15 10 15 17 0 37
144 193 187 201 5 1 22 14 38 30 17 15 35 28 42 28 6 0 19 10 28 23 8 12 19
21 23 20 4 -1 16 5 27 13 11 8 46 33 78 55 31 22 57 45 57 50 0 5 4 9 10 9 10
0 37 20 72 53 10 9 18 14 18 10 0 -5 11 4 24 20 13 15 27 27 31 27 15 0 201
180 198 192 -2 4 4 8 12 8 8 0 15 3 15 8 0 4 17 25 38 48 57 63 82 94 76 94
-3 0 1 7 8 15 22 24 30 35 106 147 40 59 72 110 72 113 0 3 0 6 1 8 25 82 15
138 -34 190 -19 21 -60 49 -77 52 -3 1 -16 5 -30 8 -33 9 -70 15 -96 16 -18 1
-22 9 -26 46 -6 51 -43 106 -91 136 -51 30 -174 49 -232 35 -11 -2 -20 -5 -20
-6 0 -1 -7 -3 -15 -5 -8 -2 -25 -6 -37 -9 -13 -3 -32 -8 -42 -10 -11 -3 -54
-14 -96 -26 -42 -12 -86 -23 -97 -25 -72 -14 -198 -71 -266 -120 -44 -32 -159
-143 -197 -190 -16 -21 -41 -50 -55 -65 -62 -68 -150 -181 -218 -280 -9 -14
-40 -57 -69 -97 -29 -40 -53 -77 -53 -82 0 -6 -3 -11 -7 -11 -5 0 -19 -17 -33
-38 -14 -20 -28 -41 -33 -47 -4 -5 -21 -28 -37 -50 -16 -22 -34 -45 -40 -52
-6 -7 -15 -24 -22 -38 -6 -14 -15 -25 -20 -25 -4 0 -8 -7 -8 -15 0 -8 -9 -24
-19 -34 -11 -11 -17 -22 -13 -25 3 -3 0 -6 -6 -6 -7 0 -12 -5 -12 -10 0 -6
-16 -33 -35 -60 -19 -27 -35 -54 -35 -59 0 -6 -8 -15 -17 -20 -10 -6 -13 -11
-8 -11 6 0 6 -3 -1 -8 -5 -4 -21 -25 -34 -47 -25 -44 -53 -72 -90 -94 -14 -8
-83 -49 -155 -91 -71 -42 -141 -83 -155 -91 -14 -8 -27 -16 -30 -19 -3 -3 -22
-14 -42 -25 -20 -11 -85 -49 -145 -85 -59 -36 -112 -67 -118 -69 -5 -2 -17 -9
-25 -16 -8 -7 -35 -24 -60 -37 -25 -14 -103 -60 -175 -103 -71 -43 -143 -86
-160 -95 -156 -91 -231 -136 -233 -142 -2 -4 -8 -8 -13 -8 -5 0 -38 -18 -74
-39 -103 -63 -204 -108 -341 -152 -167 -54 -252 -79 -289 -86 -16 -3 -35 -9
-41 -14 -6 -5 -13 -7 -16 -4 -2 3 -20 0 -39 -6 -19 -6 -47 -13 -64 -16 -16 -3
-38 -9 -47 -14 -10 -5 -18 -8 -18 -5 0 3 -21 -1 -47 -9 -27 -8 -61 -16 -78
-19 -16 -3 -41 -8 -55 -12 -14 -3 -39 -6 -56 -8 -17 -1 -35 -5 -40 -9 -5 -3
-48 -8 -94 -12 -47 -3 -119 -8 -160 -12 -108 -8 -405 -4 -405 7 0 1 -18 3 -40
5 -99 8 -196 66 -230 139 -14 30 -15 38 -3 54 7 11 17 20 21 20 15 2 102 47
109 57 4 5 8 6 8 1 0 -5 7 -3 15 4 8 7 15 9 15 4 0 -5 4 -4 8 2 4 7 39 29 77
49 39 21 73 42 76 47 3 5 8 8 10 6 5 -3 121 53 129 63 3 3 22 12 43 18 20 7
37 17 37 23 0 6 3 8 6 5 4 -3 16 0 28 8 11 8 28 15 37 15 10 0 19 3 21 8 4 10
181 97 191 94 4 -1 7 2 7 7 0 5 15 14 33 22 17 7 34 15 37 18 3 3 39 23 80 43
41 21 98 51 125 68 28 16 57 33 65 36 8 4 23 14 33 22 9 8 17 12 17 7 0 -4 15
4 33 17 17 14 42 28 55 32 12 4 22 12 22 17 0 5 7 9 15 9 8 0 15 4 15 10 0 5
11 12 25 16 14 3 25 9 25 13 0 4 12 14 28 21 37 19 146 93 150 103 2 4 10 7
18 7 8 0 14 4 14 9 0 5 8 12 19 16 10 3 28 13 39 23 53 45 62 51 62 47 0 -3 9
3 19 13 32 29 50 42 56 42 3 0 13 8 23 18 10 9 30 26 44 37 55 43 134 112 174
152 24 22 45 39 48 35 3 -3 6 1 7 9 0 8 25 35 55 62 30 26 51 47 48 47 -4 0 4
10 17 23 13 12 42 45 64 72 22 28 46 54 53 58 7 5 10 12 7 18 -4 5 -3 9 2 9 4
0 19 17 33 38 14 20 31 43 38 50 7 8 10 17 7 22 -3 4 2 14 11 21 17 14 69 110
66 122 -1 4 3 7 8 7 6 0 10 9 10 20 0 11 4 20 8 20 5 0 9 6 10 13 1 18 10 56
16 65 21 34 27 177 11 247 -17 72 -45 120 -112 193 -23 25 -39 50 -37 54 3 5
0 15 -6 23 -7 8 -10 15 -6 15 4 0 0 10 -9 23 -8 13 -12 27 -8 30 3 4 1 7 -5 7
-6 0 -14 10 -17 21 -4 12 -36 50 -70 85 -47 47 -84 74 -139 99 -41 19 -83 35
-94 35 -10 0 -22 3 -26 7 -8 8 -24 10 -130 18 -43 3 -82 8 -87 11 -5 3 -9 2
-9 -3z m-479 -988 c-26 -45 -124 -188 -141 -205 -3 -3 -21 -25 -40 -50 -96
-124 -168 -206 -261 -296 -82 -79 -212 -193 -280 -246 -19 -15 -43 -34 -54
-43 -37 -29 -145 -105 -149 -105 -3 0 -31 -17 -63 -39 -32 -21 -78 -48 -102
-61 l-44 -22 22 33 c12 19 25 42 28 52 3 9 9 17 14 17 5 0 9 7 9 14 0 8 11 27
25 42 14 15 25 33 25 40 0 8 5 14 10 14 6 0 10 5 10 10 0 6 11 23 25 38 14 15
25 30 25 34 0 5 8 16 18 26 32 35 52 62 52 73 0 5 5 7 10 4 6 -3 10 -1 10 5 0
13 40 57 147 164 112 112 140 136 153 136 6 0 8 5 5 10 -3 6 -2 10 3 10 9 0
27 15 90 71 17 16 32 26 32 22 1 -5 7 3 15 17 8 14 14 21 15 16 0 -5 8 0 18
10 9 11 34 30 54 44 21 14 38 28 38 33 0 4 7 7 15 7 8 0 15 4 15 8 0 11 159
115 176 115 8 0 12 3 8 6 -4 4 79 49 94 51 2 0 -10 -25 -27 -55z m699 -1987
l0 -193 -105 -44 c-58 -24 -108 -42 -111 -39 -2 3 -6 31 -7 62 -1 31 -4 56 -7
56 -3 0 -7 17 -8 38 -4 54 -9 107 -12 107 -1 0 -4 25 -6 57 l-5 56 37 12 c21
7 52 22 71 32 18 11 33 17 33 14 0 -3 19 3 43 14 81 36 77 45 77 -172z m-240
-383 c0 -8 -73 -36 -84 -32 -14 5 43 36 67 37 9 0 17 -2 17 -5z"/>
</g>
</svg>
